<?xml version="1.0" standalone="no"?>
<!DOCTYPE svg PUBLIC "-//W3C//DTD SVG 20010904//EN"
 "http://www.w3.org/TR/2001/REC-SVG-20010904/DTD/svg10.dtd">
<svg version="1.0" xmlns="http://www.w3.org/2000/svg"
 width="592.000000pt" height="592.000000pt" viewBox="0 0 592.000000 592.000000"
 preserveAspectRatio="xMidYMid meet">
<metadata>
Created by potrace 1.14, written by Peter Selinger 2001-2017
</metadata>
<g transform="translate(0.000000,592.000000) scale(0.100000,-0.100000)"
fill="#000000" stroke="none">
<path d="M3025 5840 c-2 -4 -22 -6 -45 -6 -22 1 -40 -1 -40 -5 0 -4 -16 -10
-35 -13 -19 -4 -35 -12 -35 -18 0 -6 -3 -8 -6 -5 -4 3 -16 1 -28 -5 -11 -7
-24 -11 -28 -10 -5 1 -8 -2 -8 -6 0 -5 -15 -17 -34 -27 -19 -11 -40 -29 -47
-42 -7 -12 -15 -21 -18 -18 -10 5 -20 -3 -73 -62 -27 -29 -48 -50 -48 -47 0 3
-6 -1 -14 -8 -8 -7 -13 -14 -11 -16 5 -5 -225 -232 -236 -232 -5 0 -8 -3 -6
-7 3 -5 -6 -17 -20 -28 -36 -30 -122 -115 -116 -115 3 0 -6 -9 -20 -20 -14
-11 -32 -20 -40 -20 -16 0 -77 55 -77 70 0 6 -7 10 -15 10 -8 0 -15 5 -15 11
0 17 -43 48 -67 49 -13 0 -23 -5 -23 -11 0 -6 -16 -25 -35 -43 -19 -19 -35
-32 -35 -29 0 2 -6 -2 -14 -9 -8 -7 -12 -16 -10 -19 1 -3 -11 -14 -29 -24 -32
-19 -121 -30 -111 -14 3 5 0 9 -5 9 -15 0 -14 27 2 33 9 4 9 6 -1 6 -9 1 -10
6 -3 19 5 9 9 20 10 25 1 4 1 8 2 10 17 56 -6 62 -53 14 -31 -31 -37 -46 -41
-89 -1 -10 -4 -18 -7 -18 -12 0 0 -91 14 -112 9 -12 16 -18 16 -13 0 5 6 0 14
-10 12 -17 7 -25 -60 -92 -40 -40 -76 -73 -80 -73 -9 0 -54 -52 -54 -63 0 -4
-4 -6 -9 -5 -5 2 -21 -12 -35 -31 -14 -19 -26 -31 -26 -27 0 4 -7 1 -15 -8 -8
-8 -15 -19 -15 -24 0 -19 -49 -33 -67 -19 -16 12 -152 17 -158 6 -3 -4 -12 -6
-20 -2 -8 3 -15 0 -15 -6 0 -6 -3 -10 -7 -10 -22 4 -33 -2 -27 -13 5 -8 2 -9
-9 -5 -10 4 -17 2 -17 -5 0 -6 -8 -18 -17 -27 -21 -19 -57 -81 -47 -81 3 0 2
-6 -3 -12 -23 -31 2 -188 30 -188 5 0 6 -4 2 -10 -6 -9 57 -80 72 -80 4 0 9
-11 9 -25 1 -14 -1 -25 -5 -25 -11 0 -70 -57 -65 -63 3 -3 -4 -8 -15 -12 -12
-3 -21 -13 -21 -21 0 -8 -3 -13 -7 -11 -9 5 -54 -39 -47 -45 2 -3 -7 -11 -21
-18 -14 -7 -25 -16 -25 -20 0 -11 -144 -155 -153 -152 -4 1 -10 -5 -13 -13 -4
-8 -12 -15 -20 -15 -8 0 -13 -3 -12 -7 2 -5 -43 -54 -100 -111 -56 -57 -102
-108 -102 -113 0 -6 -3 -8 -7 -6 -10 6 -34 -19 -27 -26 3 -3 -4 -8 -15 -12
-11 -3 -23 -15 -26 -25 -3 -11 -10 -19 -14 -17 -11 3 -71 -50 -64 -57 4 -3 1
-6 -6 -6 -7 0 -9 -4 -6 -10 3 -5 -2 -10 -11 -10 -10 0 -15 -3 -11 -6 3 -4 1
-12 -6 -20 -30 -34 -37 -44 -30 -44 4 0 3 -4 -3 -8 -13 -8 -44 -66 -44 -82 0
-6 -7 -18 -15 -27 -8 -8 -13 -19 -9 -24 3 -6 0 -16 -6 -24 -7 -8 -10 -22 -6
-30 3 -8 1 -15 -3 -15 -5 0 -8 -8 -7 -17 2 -10 -2 -21 -8 -25 -8 -5 -7 -8 2
-8 9 0 10 -5 4 -17 -8 -15 -10 -173 -2 -180 1 -2 3 -6 4 -10 1 -5 5 -14 10
-22 7 -11 6 -12 -5 -6 -12 8 -12 6 0 -8 7 -9 10 -17 5 -17 -4 0 -3 -5 4 -12 7
-7 12 -23 12 -36 0 -13 4 -21 9 -17 6 3 8 -4 6 -15 -2 -11 0 -20 5 -20 5 0 13
-12 16 -27 4 -16 15 -40 25 -55 11 -14 19 -29 19 -32 0 -8 19 -30 98 -111 34
-36 59 -65 55 -66 -5 0 2 -4 15 -10 13 -5 20 -13 17 -19 -3 -5 -2 -10 3 -10
12 0 112 -100 112 -112 0 -5 5 -6 10 -3 6 3 10 0 10 -8 0 -15 49 -53 62 -49 4
1 10 -7 13 -18 4 -11 13 -20 21 -20 8 0 13 -6 11 -12 -1 -7 4 -12 11 -11 6 2
12 -2 12 -7 0 -6 30 -41 67 -77 38 -37 67 -70 66 -75 -2 -4 1 -8 6 -8 13 0 76
-62 74 -72 -2 -4 1 -8 6 -8 11 0 71 -58 71 -69 0 -5 9 -13 20 -16 11 -4 18
-10 15 -14 -2 -4 6 -14 19 -21 31 -16 27 -34 -16 -73 -34 -31 -74 -94 -70
-109 1 -5 -2 -8 -7 -8 -5 0 -8 -11 -6 -25 1 -14 -1 -25 -5 -25 -4 0 -7 -11 -7
-25 0 -14 2 -25 6 -25 3 0 7 -15 7 -34 1 -19 9 -42 18 -51 15 -16 20 -30 17
-48 -1 -5 3 -6 8 -3 5 4 13 0 18 -7 11 -19 87 -57 113 -57 11 0 20 -5 20 -11
0 -8 5 -8 15 1 11 9 15 9 15 1 0 -9 5 -9 20 -1 11 6 25 8 30 5 6 -3 10 -1 10
6 0 7 3 9 6 6 4 -3 15 -2 25 3 14 8 22 4 37 -15 11 -13 22 -21 26 -18 3 3 6
-2 6 -12 0 -10 3 -15 6 -12 4 4 19 -9 35 -29 15 -19 30 -35 33 -34 10 1 46
-24 46 -32 0 -12 38 -48 50 -48 5 0 10 -4 10 -10 0 -5 22 -31 48 -57 29 -29
47 -56 45 -66 -1 -9 -4 -23 -6 -31 -2 -8 -9 -22 -17 -32 -12 -15 -12 -16 -1
-9 10 6 12 4 6 -6 -12 -19 -15 -59 -5 -59 5 0 7 -6 4 -14 -3 -8 5 -34 17 -58
22 -44 59 -96 59 -84 0 4 10 -2 22 -13 11 -11 25 -18 29 -15 4 2 11 0 14 -6
10 -17 132 -9 171 10 18 10 30 20 27 24 -4 3 -1 6 5 6 7 0 44 33 84 74 67 69
117 99 111 69 -2 -7 1 -13 7 -13 7 0 140 -128 140 -135 0 -9 163 -165 172
-165 6 0 8 -3 5 -7 -10 -9 144 -153 156 -146 6 3 7 1 4 -4 -4 -6 8 -25 27 -41
19 -17 32 -33 29 -36 -4 -3 -1 -6 5 -6 6 0 30 -18 52 -40 22 -22 44 -40 48
-40 15 0 62 -25 62 -33 0 -5 5 -5 10 -2 6 3 10 1 10 -5 0 -6 5 -8 10 -5 6 3
10 1 10 -5 0 -6 4 -9 9 -5 5 3 12 1 16 -4 3 -6 12 -8 20 -4 8 3 15 1 15 -4 0
-5 26 -11 57 -12 32 -1 60 -6 63 -10 3 -5 12 -7 20 -5 19 4 72 12 125 19 21 3
45 11 52 17 7 6 13 7 13 3 0 -4 20 5 45 19 25 15 45 24 45 20 0 -5 7 1 15 12
8 10 15 15 15 11 0 -17 247 229 256 255 3 10 10 18 15 18 5 0 9 9 9 19 0 11 4
22 9 26 6 3 8 14 6 25 -2 11 2 20 8 20 8 0 8 3 2 8 -6 4 -10 26 -10 50 1 24
-2 45 -7 48 -4 3 -8 14 -8 25 0 11 -7 22 -15 25 -8 4 -15 10 -15 16 0 12 -26
38 -38 38 -6 0 -13 7 -16 16 -3 8 -10 12 -16 9 -5 -3 -10 -2 -10 3 0 20 -99
31 -150 17 -14 -4 -31 -7 -37 -7 -7 -1 -13 -5 -13 -10 0 -4 -9 -8 -20 -8 -11
0 -20 -4 -20 -10 0 -20 -144 -169 -165 -171 -22 -2 -29 -4 -40 -10 -21 -11
-115 6 -115 22 0 5 -6 9 -14 9 -8 0 -18 9 -21 20 -3 11 -12 20 -20 20 -8 0
-17 9 -20 21 -4 11 -9 18 -12 15 -4 -3 -19 7 -34 23 -15 16 -30 27 -33 23 -3
-3 -6 2 -6 12 0 9 -7 19 -15 22 -8 4 -12 10 -9 15 3 5 1 9 -4 9 -9 0 -35 52
-39 79 -1 7 -7 19 -14 25 -9 8 -10 8 -5 -2 9 -15 -10 -16 -19 -1 -4 6 -13 8
-21 5 -8 -3 -14 -2 -14 2 0 4 -10 8 -22 9 -22 2 -84 18 -118 31 -8 3 -19 7
-25 7 -16 3 -68 24 -96 40 -14 8 -29 12 -33 8 -3 -3 -6 -2 -6 4 0 10 -36 26
-52 24 -5 -1 -8 4 -8 10 0 5 -4 7 -10 4 -5 -3 -10 -1 -10 4 0 6 -9 11 -20 11
-11 0 -20 5 -20 10 0 6 -9 10 -20 10 -11 0 -20 4 -20 8 0 5 -12 15 -28 23 -15
8 -33 20 -40 27 -8 7 -18 9 -24 6 -6 -4 -8 -2 -5 3 7 10 -20 28 -36 24 -4 0
-10 6 -13 14 -4 8 -11 15 -18 15 -6 0 -17 9 -24 21 -7 12 -16 18 -19 15 -3 -3
-18 7 -33 22 -14 16 -33 26 -41 24 -8 -3 -11 -1 -7 3 6 7 -34 55 -47 55 -11 0
-193 189 -187 194 3 4 0 6 -7 6 -16 0 -42 26 -34 34 4 3 -2 6 -11 6 -10 0 -16
5 -14 12 2 6 -11 25 -29 41 -19 16 -31 32 -29 35 3 2 -8 17 -24 32 -17 16 -30
32 -30 37 0 4 -11 20 -24 35 -14 14 -22 29 -19 32 4 3 1 6 -5 6 -7 0 -12 7
-12 15 0 8 -4 15 -9 15 -5 0 -11 8 -15 18 -3 9 -15 31 -26 47 -11 17 -25 41
-31 55 -6 14 -17 32 -25 41 -8 8 -19 42 -26 75 -6 32 -16 62 -22 66 -6 4 -7 8
-3 8 5 0 -12 21 -37 47 -25 25 -46 50 -46 55 0 4 -6 8 -14 8 -8 0 -18 9 -21
21 -4 11 -9 18 -13 15 -3 -3 -12 3 -19 14 -8 11 -18 18 -22 16 -4 -3 -16 9
-26 25 -11 16 -26 29 -32 29 -7 0 -13 4 -13 9 0 13 -326 341 -333 335 -3 -3
-11 8 -18 25 -7 16 -17 27 -21 25 -4 -3 -8 -1 -8 4 0 5 -12 21 -26 36 -15 14
-23 26 -19 26 5 0 -2 9 -14 19 -12 11 -22 22 -21 26 1 3 -1 16 -5 28 -10 33
-11 59 -2 87 5 14 11 34 13 45 2 11 8 21 14 23 6 2 8 7 6 11 -7 11 70 92 78
83 4 -4 6 -2 4 3 -2 6 49 64 113 128 64 64 115 117 113 117 -2 0 4 8 14 18 9
11 20 17 24 15 4 -2 9 6 13 17 4 11 10 18 14 15 5 -2 13 7 19 20 7 14 19 25
28 25 10 0 15 3 11 6 -5 6 48 64 59 64 11 0 192 189 186 194 -3 3 0 6 7 6 8 0
11 7 7 15 -3 8 -2 15 2 15 4 0 7 10 8 23 1 26 7 50 15 57 15 14 57 109 51 115
-4 5 -2 5 5 1 7 -4 21 14 38 49 15 30 31 55 36 55 5 0 9 6 9 14 0 8 10 22 22
30 12 9 19 16 15 16 -4 0 5 12 20 28 29 28 33 34 33 53 0 5 4 7 10 4 5 -3 10
1 10 9 0 9 7 16 16 16 8 0 12 5 9 10 -3 6 -1 10 4 10 6 0 10 3 9 8 -2 4 45 56
105 117 59 60 107 113 107 118 0 4 4 6 9 2 5 -3 12 4 16 15 3 11 9 19 13 17
11 -3 53 29 46 36 -4 3 5 9 20 13 14 3 26 12 26 20 0 8 3 13 8 12 13 -3 42 14
37 22 -3 4 6 11 20 14 14 4 34 14 45 24 37 33 50 43 50 35 0 -4 4 -3 8 2 4 6
16 17 26 25 18 13 19 13 12 0 -4 -8 1 -5 12 8 11 12 27 22 36 22 9 0 16 3 16
8 0 10 51 32 61 26 5 -3 9 0 9 6 0 10 37 28 74 36 11 2 23 9 28 16 4 7 8 9 8
5 0 -4 10 -2 23 5 22 12 42 18 65 20 6 1 12 5 12 10 0 5 4 7 9 3 5 -3 12 -1
16 4 3 5 13 10 23 10 40 1 52 5 52 15 0 6 5 4 10 -4 5 -8 10 -10 10 -3 0 6 18
14 40 18 22 4 42 11 46 16 3 5 10 7 15 4 5 -4 9 2 9 12 0 10 7 29 16 41 9 13
13 26 10 29 -3 3 6 17 20 30 14 12 23 23 22 23 -8 0 135 140 163 161 43 30
123 35 159 9 16 -11 33 -20 40 -20 6 0 9 -4 6 -9 -3 -5 1 -11 9 -15 8 -3 15
-12 15 -21 0 -8 7 -15 15 -15 8 0 15 -4 15 -10 0 -13 73 -85 83 -82 4 1 10 -5
13 -13 4 -8 14 -15 23 -15 10 0 21 -3 25 -7 10 -11 50 -11 63 -1 7 5 14 5 17
-1 7 -11 26 -9 67 7 29 12 109 87 109 103 0 6 4 8 9 4 6 -3 8 4 6 15 -2 11 0
20 4 20 4 0 7 23 6 50 -1 28 2 53 6 56 9 5 -32 99 -56 126 -8 10 -13 18 -10
18 5 0 -112 115 -188 185 -24 22 -54 46 -68 54 -44 27 -119 61 -126 59 -5 -1
-17 2 -28 8 -11 6 -30 9 -42 8 -13 0 -23 1 -23 5 0 9 -109 10 -115 1z"/>
<path d="M4227 5329 c-9 -6 -17 -7 -17 -3 0 3 -7 1 -15 -6 -8 -7 -15 -9 -15
-4 0 5 -5 1 -11 -9 -6 -9 -14 -15 -18 -13 -9 6 -121 -100 -114 -108 4 -3 0 -6
-9 -6 -8 0 -21 -11 -28 -25 -7 -13 -16 -23 -19 -22 -3 2 -20 -12 -38 -30 -17
-18 -30 -33 -27 -33 2 0 -27 -30 -64 -67 -37 -36 -66 -70 -64 -75 1 -4 -1 -7
-5 -6 -5 2 -9 -1 -10 -6 -1 -4 -15 -17 -32 -27 -17 -10 -31 -23 -31 -28 0 -28
-81 -34 -417 -34 -189 0 -343 -4 -343 -8 0 -8 -26 -20 -55 -25 -50 -8 -140
-29 -145 -34 -6 -6 -27 -11 -52 -13 -10 -1 -18 -5 -18 -9 0 -4 -7 -5 -15 -2
-8 4 -15 2 -15 -4 0 -6 -11 -9 -25 -7 -15 1 -29 -4 -35 -14 -5 -9 -12 -15 -17
-13 -10 4 -91 -27 -118 -44 -11 -7 -24 -14 -30 -15 -33 -7 -45 -12 -45 -21 0
-5 -4 -7 -9 -4 -4 3 -19 -3 -31 -14 -12 -11 -32 -22 -44 -26 -11 -4 -23 -10
-26 -13 -9 -11 -90 -61 -95 -59 -2 2 -12 -7 -20 -20 -9 -12 -20 -20 -25 -17
-4 3 -11 -2 -14 -11 -3 -8 -10 -13 -15 -9 -5 3 -13 -4 -16 -16 -4 -11 -9 -18
-13 -15 -3 3 -11 -3 -19 -14 -8 -11 -18 -20 -23 -20 -6 0 -22 -12 -37 -28 -16
-15 -45 -42 -66 -60 -21 -17 -35 -32 -32 -32 4 0 0 -7 -9 -15 -8 -8 -19 -15
-25 -15 -6 0 -11 -7 -11 -15 0 -9 -7 -18 -15 -21 -8 -4 -13 -9 -10 -14 2 -4
-6 -16 -18 -27 -27 -24 -105 -124 -108 -138 -2 -5 -11 -19 -21 -29 -10 -11
-18 -23 -18 -28 0 -4 -8 -17 -18 -28 -9 -11 -17 -24 -17 -28 0 -4 -10 -23 -23
-43 -12 -20 -22 -41 -22 -48 0 -6 -4 -11 -10 -11 -5 0 -10 -8 -10 -18 0 -10
-7 -28 -16 -40 -8 -12 -13 -22 -9 -22 3 0 -1 -10 -10 -23 -8 -13 -12 -27 -8
-30 3 -4 2 -7 -4 -7 -6 0 -14 -7 -17 -16 -4 -10 -2 -13 6 -8 7 4 3 -6 -9 -22
-11 -16 -21 -32 -22 -36 -2 -13 -5 -24 -21 -78 -7 -25 -14 -48 -16 -52 -1 -5
-2 -9 -4 -10 -2 -4 -8 -33 -16 -90 -4 -27 -10 -48 -14 -48 -4 0 -6 -12 -4 -27
1 -15 0 -32 -4 -38 -4 -5 -8 -30 -10 -55 -6 -83 -4 -395 3 -445 4 -27 8 -62 9
-77 0 -16 4 -28 8 -28 4 0 8 -10 8 -22 2 -53 5 -86 10 -86 17 1 23 -3 13 -10
-10 -6 -9 -14 2 -35 7 -15 11 -27 8 -27 -3 0 0 -7 7 -15 7 -8 9 -15 4 -15 -4
0 -3 -5 3 -11 6 -6 9 -18 6 -25 -3 -8 1 -14 8 -14 7 0 9 -3 6 -7 -4 -3 0 -17
8 -29 11 -17 12 -24 2 -27 -9 -4 -9 -6 1 -6 6 -1 12 -8 12 -16 0 -8 5 -15 12
-15 6 0 9 -3 5 -6 -3 -4 1 -21 10 -38 9 -17 18 -37 19 -45 2 -7 7 -18 13 -24
6 -6 11 -19 11 -29 0 -9 6 -21 13 -25 15 -9 52 -84 49 -96 -1 -5 2 -6 8 -2 5
3 10 -1 10 -10 0 -10 5 -13 12 -9 6 4 8 3 4 -4 -3 -6 1 -17 9 -25 8 -9 15 -19
15 -22 0 -16 86 -124 98 -125 7 0 10 -4 7 -10 -3 -5 32 -48 79 -95 46 -47 82
-85 80 -85 -3 0 18 -20 46 -45 28 -25 54 -45 59 -45 5 0 11 -9 14 -21 3 -13
10 -18 17 -14 7 4 18 -2 26 -14 8 -12 22 -21 30 -21 8 0 13 -4 9 -9 -3 -5 3
-12 14 -16 10 -3 29 -14 42 -25 37 -31 44 -35 59 -38 8 -2 17 -7 20 -10 3 -4
17 -13 33 -21 15 -8 27 -18 27 -23 0 -4 7 -8 15 -8 8 0 15 -5 15 -11 0 -5 5
-7 11 -4 5 4 18 0 28 -9 10 -9 25 -16 32 -14 8 2 13 -2 12 -9 -2 -7 3 -10 11
-7 7 3 20 -1 27 -8 15 -13 34 -20 57 -21 6 0 12 -5 12 -10 0 -5 9 -7 20 -4 11
3 18 1 14 -4 -3 -5 0 -10 5 -10 13 -2 28 -5 39 -9 4 -2 12 -4 17 -5 6 -2 12
-4 15 -5 5 -2 29 -8 53 -13 6 -1 18 -6 25 -10 6 -5 12 -5 12 0 0 4 5 1 10 -7
5 -8 10 -10 10 -3 0 8 13 7 46 -3 26 -7 50 -11 54 -9 5 3 11 1 15 -5 4 -6 11
-8 16 -4 5 3 17 0 26 -8 13 -10 88 -13 357 -14 188 -1 348 -4 357 -8 9 -4 20
-6 25 -5 25 4 44 -3 44 -16 0 -8 6 -15 14 -15 8 0 17 -9 21 -19 3 -11 15 -23
26 -26 10 -4 19 -10 19 -14 0 -4 20 -28 45 -53 25 -25 45 -44 45 -41 0 3 7 0
15 -7 8 -7 12 -17 8 -23 -3 -6 -1 -7 5 -3 7 4 12 2 12 -3 0 -6 7 -11 15 -11 8
0 15 -5 15 -11 0 -6 23 -33 51 -60 28 -27 47 -49 42 -49 -4 0 4 -11 19 -25 15
-14 33 -25 39 -25 7 0 9 -3 6 -7 -4 -3 16 -17 44 -30 40 -19 63 -24 114 -21
36 1 65 6 65 10 0 5 7 8 15 8 8 0 15 4 15 10 0 5 4 9 8 7 18 -5 78 68 83 101
0 4 5 12 10 18 12 14 9 104 -4 104 -6 0 -8 3 -4 6 9 9 -20 75 -41 90 -9 7 -13
14 -8 14 5 0 -1 8 -12 19 -12 10 -19 21 -15 25 3 3 1 6 -6 6 -7 0 -18 6 -26
13 -86 80 -175 170 -175 177 0 5 -9 12 -21 15 -11 4 -18 9 -16 12 7 7 -26 41
-35 36 -5 -2 -8 1 -8 7 0 6 -7 18 -15 26 -17 18 -20 34 -4 34 5 0 8 3 6 8 -2
4 4 15 15 24 10 10 18 15 18 11 0 -6 154 150 211 215 16 18 29 29 29 25 0 -4
9 5 19 21 11 17 18 33 15 38 -3 4 -1 8 4 8 27 0 38 154 12 170 -6 4 -11 11
-10 15 1 4 -7 17 -18 30 -11 13 -19 25 -16 27 2 2 -17 17 -41 33 -51 32 -74
55 -56 55 7 0 10 3 8 8 -3 4 218 8 491 9 566 2 530 1 537 14 4 5 11 7 16 4 5
-4 9 -1 9 4 0 6 9 11 20 11 11 0 20 5 20 11 0 5 5 7 10 4 6 -3 10 -1 10 4 0 6
7 11 15 11 8 0 20 9 27 20 7 11 16 20 21 20 12 0 166 158 159 164 -3 3 0 6 7
6 14 0 25 11 60 55 12 17 25 29 27 28 2 -2 5 0 6 5 1 4 12 15 25 25 13 10 23
27 23 38 0 11 4 18 8 15 4 -2 9 7 10 20 1 14 6 33 11 43 6 10 6 23 0 32 -5 7
-9 22 -9 31 0 28 -44 118 -58 118 -7 0 -10 5 -7 10 3 6 -1 10 -9 10 -9 0 -16
4 -16 8 0 21 -68 43 -137 45 -39 1 -123 -30 -123 -45 0 -5 -5 -8 -10 -8 -6 0
-64 -53 -128 -119 -68 -69 -130 -122 -147 -128 -18 -5 -330 -9 -772 -8 -607 0
-743 -2 -743 -13 0 -7 -4 -10 -10 -7 -5 3 -10 1 -10 -6 0 -16 -82 -99 -98 -99
-7 0 -11 -4 -8 -9 5 -8 -40 -26 -56 -23 -5 1 -8 -2 -8 -7 0 -10 -52 -21 -124
-26 -26 -2 -51 -6 -54 -9 -3 -3 -11 -1 -19 5 -10 9 -13 8 -13 -2 0 -10 -3 -10
-12 -1 -7 7 -27 12 -46 12 -42 0 -114 20 -124 35 -4 5 -8 6 -8 1 0 -4 -11 -1
-25 8 -14 9 -29 15 -34 12 -5 -3 -16 3 -26 14 -10 11 -22 17 -26 14 -5 -3 -9
2 -9 11 0 9 -4 13 -10 10 -5 -3 -10 -1 -10 4 0 6 -5 11 -10 11 -15 0 -130 121
-130 137 0 8 -7 16 -15 19 -8 4 -12 10 -9 15 3 5 0 9 -5 9 -6 0 -11 5 -11 11
0 6 -10 25 -22 42 -12 17 -16 27 -8 22 9 -5 5 6 -8 29 -12 20 -18 35 -13 31 5
-3 3 8 -5 25 -9 16 -13 34 -9 40 3 5 2 10 -3 10 -5 0 -9 30 -10 68 0 37 -2 69
-2 72 -5 15 4 137 11 150 1 3 3 10 4 15 7 35 77 185 86 185 5 0 9 7 9 15 0 7
8 19 18 24 9 6 14 11 10 11 -12 0 98 110 110 110 7 0 12 4 12 9 0 5 20 19 45
31 25 12 48 26 51 32 3 5 12 7 20 4 9 -3 14 1 15 12 0 9 3 12 5 5 4 -9 15 -6
40 7 19 11 34 18 34 16 0 -2 18 0 40 4 27 5 40 4 40 -4 0 -6 4 -4 9 3 9 15
101 24 101 11 0 -3 21 -7 48 -7 26 -1 60 -8 76 -17 16 -8 33 -13 38 -10 4 3 8
2 8 -3 0 -4 12 -14 28 -20 15 -7 36 -26 47 -42 10 -16 23 -27 27 -25 4 3 8 0
8 -6 0 -6 4 -9 8 -6 5 3 15 -10 22 -29 8 -19 16 -35 19 -36 35 -6 81 -2 81 6
0 7 3 7 8 0 4 -6 39 -10 77 -10 39 0 73 4 77 10 5 7 8 7 8 0 0 -5 16 -10 35
-10 19 0 35 5 35 10 0 7 3 7 8 0 4 -6 39 -10 77 -10 39 0 73 4 77 10 5 7 8 7
8 0 0 -5 16 -10 35 -10 19 0 35 5 35 10 0 7 3 7 8 0 4 -6 39 -10 77 -10 39 0
73 4 77 10 5 7 8 7 8 0 0 -5 16 -10 35 -10 19 0 35 5 35 10 0 7 3 7 8 0 4 -6
39 -10 77 -10 39 0 73 4 77 10 5 7 8 7 8 0 0 -5 16 -10 35 -10 19 0 35 5 35
10 0 7 3 7 8 0 4 -6 39 -10 77 -10 39 0 73 4 77 10 5 7 8 7 8 0 0 -5 16 -10
35 -10 19 0 35 5 35 10 0 7 3 7 8 0 4 -6 39 -10 77 -10 39 0 73 4 77 10 5 7 8
7 8 0 0 -5 17 -11 37 -12 20 -1 40 -8 44 -15 5 -7 9 -9 9 -5 0 10 23 -9 58
-48 72 -78 156 -154 166 -148 6 3 8 3 4 -1 -9 -10 28 -46 48 -46 8 0 12 -4 9
-10 -3 -5 2 -10 13 -10 10 0 22 -3 26 -7 3 -4 12 -8 19 -9 7 -1 27 -4 45 -7
17 -3 32 -1 32 4 0 6 4 8 8 5 5 -3 20 1 35 9 14 7 28 11 30 9 5 -5 97 83 98
94 0 4 3 16 5 27 10 40 15 138 8 154 -4 9 -8 18 -9 21 -9 33 -18 49 -26 45 -5
-4 -9 -2 -9 4 0 6 -10 19 -22 31 -12 11 -18 20 -14 20 4 0 -24 32 -63 71 -39
38 -71 75 -71 81 0 6 -3 9 -6 6 -3 -3 -26 14 -52 38 -25 24 -50 44 -54 44 -4
0 -8 7 -8 15 0 8 -7 15 -15 15 -9 0 -18 7 -21 15 -4 8 -10 12 -15 9 -5 -3 -9
0 -9 5 0 6 -3 10 -7 9 -5 0 -26 7 -48 17 -22 10 -55 18 -72 19 -18 0 -33 3
-33 6 0 5 -29 4 -102 -3 -21 -2 -40 1 -42 7 -3 7 -7 8 -13 1 -10 -13 -83 -15
-83 -3 0 5 -8 4 -18 -1 -13 -7 -23 -6 -30 1 -8 8 -12 9 -12 1 0 -13 -32 -12
-42 2 -5 6 -8 5 -8 -4 0 -11 -3 -11 -15 -1 -8 7 -15 8 -15 3 0 -5 -9 -9 -20
-9 -11 0 -20 4 -20 9 0 5 -6 4 -13 -2 -8 -6 -17 -8 -20 -4 -7 6 -72 6 -134 0
-18 -2 -35 2 -37 7 -3 7 -7 8 -13 1 -9 -11 -83 -16 -83 -6 0 7 -76 5 -88 -3
-4 -2 -14 -1 -21 4 -8 4 -26 4 -41 0 -18 -5 -32 -4 -39 3 -8 8 -11 7 -11 -2 0
-10 -3 -11 -13 -2 -8 6 -17 8 -20 4 -4 -3 -7 0 -7 7 0 8 29 42 65 77 36 35 65
65 65 68 0 3 7 19 16 36 18 36 25 156 9 173 -5 6 -11 18 -13 26 -2 8 -8 17
-13 18 -5 2 -9 12 -9 23 0 17 -11 24 -32 20 -5 0 -8 6 -8 15 0 8 -4 12 -10 9
-5 -3 -20 1 -32 9 -28 18 -140 15 -163 -4 -8 -7 -15 -9 -15 -6 0 4 -7 0 -16
-8 -8 -9 -20 -14 -25 -11 -5 4 -9 2 -9 -3 0 -12 -83 -97 -92 -94 -5 1 -8 -3
-8 -8 0 -9 -89 -99 -141 -143 -17 -15 -135 -17 -157 -3 -7 4 -12 3 -12 -1 0
-5 -106 -8 -235 -8 -129 0 -235 -2 -235 -5 0 -3 -19 -6 -43 -8 -52 -3 -87 -8
-107 -15 -21 -7 -123 -39 -135 -42 -5 -1 -23 -8 -40 -15 -16 -7 -33 -13 -37
-12 -5 1 -8 -2 -8 -8 0 -6 -3 -9 -7 -8 -10 2 -106 -42 -113 -52 -3 -3 -20 -15
-37 -25 -18 -11 -33 -23 -33 -27 0 -4 -4 -8 -10 -8 -10 0 -23 -11 -89 -73 -19
-18 -31 -25 -27 -17 4 8 1 6 -8 -5 -8 -11 -20 -25 -26 -32 -5 -7 -10 -16 -10
-21 0 -5 -11 -15 -25 -22 -14 -7 -25 -17 -25 -22 0 -11 -51 -81 -63 -86 -4 -2
-5 -8 -1 -13 3 -5 1 -9 -5 -9 -5 0 -13 -10 -16 -22 -4 -13 -17 -34 -29 -47
-12 -14 -15 -21 -6 -17 8 4 6 0 -4 -8 -11 -9 -17 -16 -13 -16 4 0 -1 -12 -10
-27 -10 -15 -17 -28 -15 -30 1 -2 -5 -20 -14 -41 -9 -20 -17 -47 -17 -59 -1
-13 -7 -25 -13 -27 -7 -2 -9 -16 -7 -30 3 -14 0 -33 -7 -41 -10 -12 -10 -15 1
-15 9 0 10 -3 4 -8 -6 -4 -10 -17 -9 -29 1 -13 -2 -23 -5 -23 -5 0 -5 -61 1
-332 0 -16 4 -28 8 -28 3 0 7 -6 7 -12 3 -49 11 -97 19 -109 4 -7 9 -22 9 -32
1 -10 7 -22 14 -27 7 -4 12 -10 12 -14 -3 -21 1 -36 12 -48 6 -7 14 -22 15
-33 2 -11 7 -22 11 -25 3 -3 18 -26 31 -52 14 -27 28 -48 32 -48 5 0 8 -6 8
-13 0 -7 23 -36 50 -66 28 -30 50 -57 50 -62 0 -4 9 -11 20 -14 11 -3 20 -12
20 -20 0 -8 9 -17 20 -20 11 -4 18 -11 15 -16 -4 -5 -1 -9 4 -9 10 0 40 -23
75 -56 13 -12 48 -28 59 -26 4 1 7 -5 7 -13 0 -8 9 -15 20 -15 11 0 23 -7 26
-15 4 -8 10 -13 14 -10 5 3 11 1 15 -5 4 -6 10 -8 15 -5 4 3 10 -2 14 -10 3
-9 12 -12 22 -8 13 5 15 3 9 -7 -6 -10 -4 -12 8 -7 10 3 17 2 17 -4 0 -6 5 -7
10 -4 6 3 10 1 10 -6 0 -7 3 -9 6 -6 4 3 16 1 28 -5 11 -7 28 -14 36 -15 21
-5 32 -9 52 -17 9 -4 21 -5 27 -2 5 3 15 1 23 -6 15 -15 24 -16 185 -20 79 -3
124 0 127 7 3 6 5 6 5 0 1 -6 32 -9 76 -8 52 1 75 -2 75 -10 0 -7 4 -6 10 3 5
8 10 10 10 3 0 -12 17 -12 37 0 6 4 14 3 18 -3 4 -7 13 -6 27 1 16 8 19 8 13
-1 -5 -9 -3 -9 11 -2 11 5 82 9 159 8 133 -1 140 -2 140 -21 0 -11 -13 -31
-30 -45 -16 -13 -40 -35 -52 -47 -12 -13 -27 -23 -33 -23 -6 0 -9 -4 -6 -8 2
-4 -9 -18 -25 -31 -16 -13 -26 -27 -23 -32 3 -5 0 -9 -6 -9 -13 0 -86 -71 -83
-81 3 -9 -3 -9 -364 -12 -194 -1 -343 2 -343 7 0 4 -6 3 -13 -3 -8 -6 -16 -9
-18 -7 -4 4 -38 13 -79 20 -40 8 -77 18 -93 27 -10 5 -22 7 -27 4 -6 -4 -10
-1 -10 5 0 6 -4 9 -9 5 -5 -3 -12 -1 -16 5 -3 5 -17 10 -31 10 -14 0 -23 4
-20 9 3 5 -7 11 -23 14 -16 3 -35 12 -43 19 -7 7 -20 14 -28 16 -8 2 -22 10
-31 18 -9 8 -19 11 -22 7 -4 -3 -7 -1 -7 5 0 7 -6 12 -14 12 -8 0 -16 4 -18 8
-1 5 -25 23 -53 42 -27 19 -69 52 -92 73 -24 22 -43 37 -43 34 0 -3 -15 9 -33
26 -18 18 -31 35 -30 39 2 4 -5 11 -14 17 -10 6 -15 11 -11 11 4 0 -7 15 -25
33 -46 48 -72 80 -80 100 -3 9 -11 17 -17 17 -6 0 -8 5 -5 10 3 6 1 10 -4 10
-6 0 -11 6 -11 14 0 8 -7 17 -16 20 -9 4 -14 13 -10 21 3 8 1 15 -4 15 -11 0
-60 96 -53 104 4 3 2 6 -4 6 -11 0 -37 57 -34 73 0 4 -4 7 -10 7 -5 0 -8 3 -6
7 3 5 0 19 -6 33 -5 14 -11 32 -13 40 -2 8 -7 23 -12 35 -15 30 -34 111 -34
140 0 14 -4 25 -7 25 -4 0 -8 10 -9 23 0 12 -4 45 -7 72 -9 84 -12 269 -5 280
4 6 7 31 6 58 -1 26 1 47 4 47 3 0 6 15 5 33 0 17 3 38 8 44 5 7 7 20 3 28 -3
8 -1 15 3 15 5 0 8 8 6 18 -1 9 2 22 7 29 5 7 7 17 3 23 -3 5 -1 10 4 10 6 0
10 3 9 8 -3 13 15 66 32 97 9 17 15 36 13 43 -3 6 0 12 6 12 6 0 10 3 9 8 -4
14 41 102 52 102 6 0 9 4 6 9 -7 11 25 71 37 71 5 0 5 5 2 10 -3 6 -1 10 4 10
6 0 10 6 9 13 -2 6 3 11 10 9 8 -1 11 2 8 7 -3 5 1 14 9 21 8 7 15 18 15 26 0
7 9 18 20 24 11 6 20 16 20 23 0 7 9 19 20 27 11 8 20 19 20 25 0 5 16 26 35
45 19 19 35 38 35 43 0 4 4 6 9 2 5 -3 12 4 16 15 4 11 10 18 15 15 4 -3 19 8
33 24 14 17 27 27 31 24 3 -3 8 2 12 11 3 9 10 13 15 10 5 -3 9 -1 9 4 0 10
144 110 146 102 1 -3 10 3 20 12 19 16 23 18 45 18 5 0 7 5 3 12 -5 8 -2 9 9
5 10 -3 17 -2 17 3 0 6 9 10 19 10 11 0 26 6 33 13 7 6 22 12 33 12 11 -1 23
4 27 9 3 5 14 10 25 11 10 1 34 9 53 17 25 10 37 12 42 4 5 -8 8 -7 8 2 0 6 9
12 19 12 11 0 22 4 25 8 3 5 21 8 41 7 19 -2 35 1 35 5 0 5 12 7 26 4 18 -3
23 -1 18 7 -5 8 -3 9 6 4 17 -11 300 -12 300 -2 0 5 6 5 13 0 19 -12 40 -13
54 -1 8 6 13 6 13 1 0 -5 7 -10 15 -10 8 0 15 5 15 11 0 7 3 7 8 1 9 -12 202
-14 202 -1 0 5 6 4 13 -1 6 -5 39 -8 72 -7 33 1 73 3 88 3 16 1 26 5 23 10 -3
5 4 11 17 15 12 3 31 19 42 35 11 17 21 28 24 26 2 -3 15 10 28 28 13 17 26
31 30 29 3 -2 17 13 31 32 14 20 32 36 40 36 9 0 13 3 9 6 -6 6 8 20 77 78 19
17 32 34 29 39 -3 6 -2 7 4 4 5 -3 22 10 38 28 15 19 32 32 37 29 5 -3 7 -1 6
4 -2 6 24 36 57 68 33 31 53 54 45 49 -20 -10 -4 5 34 33 16 12 26 22 22 22
-4 0 -1 6 6 14 7 8 16 12 21 9 4 -2 7 3 7 11 0 9 4 16 9 16 14 0 34 68 28 96
-2 13 0 24 6 24 5 0 5 6 -2 13 -6 8 -8 17 -4 20 7 7 -34 93 -53 114 -7 7 -14
9 -18 6 -3 -4 -6 0 -6 8 0 31 -145 69 -183 48z"/>
</g>
</svg>
